# Blender v2.78 (sub 0) OBJ File: 'flatlight.blend'
# www.blender.org
mtllib flatlight.mtl
o Cube_Cube.002
v 0.900000 0.100000 0.900000
v 0.900000 0.100000 1.000000
v 0.100000 0.100000 1.000000
v 0.100000 0.100000 0.900000
v 0.900000 0.900000 0.900000
v 0.900000 0.900000 1.000000
v 0.100000 0.900000 1.000000
v 0.100000 0.900000 0.900000
vt 1.0000 1.0000
vt 0.0000 1.0000
vt 0.0000 0.0000
vt 1.0000 0.0000
vt 0.0117 0.0000
vt 0.0519 0.0000
vt 0.0519 1.0000
vt 0.0117 1.0000
vt 0.0000 0.0000
vt 1.0000 0.0000
vt 1.0000 1.0000
vt 0.0000 1.0000
vt 0.0117 0.0000
vt 0.0519 0.0000
vt 0.0519 1.0000
vt 0.0117 1.0000
vt 0.0000 0.9472
vt 1.0000 0.9472
vt 0.0000 1.0000
vt 0.0000 0.9472
vt 1.0000 0.9472
vt 1.0000 1.0000
vn -0.0000 0.0000 -1.0000
vn 1.0000 0.0000 0.0000
vn 0.0000 0.0000 1.0000
vn -1.0000 0.0000 0.0000
vn 0.0000 -1.0000 0.0000
vn 0.0000 1.0000 0.0000
usemtl None
s off
f 8/1/1 5/2/1 1/3/1 4/4/1
usemtl None_machinebottom.png
f 5/5/2 6/6/2 2/7/2 1/8/2
f 6/9/3 7/10/3 3/11/3 2/12/3
f 7/13/4 8/14/4 4/15/4 3/16/4
f 1/17/5 2/18/5 3/11/5 4/19/5
f 8/20/6 7/21/6 6/22/6 5/2/6
