# Blender v2.78 (sub 0) OBJ File: 'glasscube_bot.blend'
# www.blender.org
mtllib glasscube_bot.mtl
o Cube.001_Cube.000
v 1.000000 0.000000 0.000000
v 0.100000 0.100000 0.900000
v 0.000000 0.100000 0.900000
v 0.000000 0.000000 0.000000
v 0.100000 1.000000 0.900000
v 0.100000 1.000000 1.000000
v 1.000000 0.100000 0.000000
v 1.000000 0.100000 1.000000
v 0.000000 0.100000 1.000000
v 0.000000 0.100000 0.000000
v 0.000000 1.000000 1.000000
v 0.000000 1.000000 0.900000
v 0.100000 0.100000 1.000000
v 0.000000 0.100000 1.000000
v 0.000000 0.100000 0.100000
v 0.100000 0.100000 0.100000
v 0.000000 1.000000 0.000000
v 1.000000 0.000000 1.000000
v 0.000000 0.000000 1.000000
v 0.000000 1.000000 0.100000
v 0.100000 1.000000 0.100000
v 0.100000 1.000000 0.000000
v 0.000000 0.100000 0.000000
v 0.100000 0.100000 0.000000
v 1.000000 0.100000 0.000000
v 0.900000 0.100000 0.000000
v 1.000000 1.000000 0.000000
v 1.000000 1.000000 0.100000
v 0.900000 1.000000 0.100000
v 0.900000 1.000000 0.000000
v 1.000000 0.100000 0.100000
v 0.900000 0.100000 0.100000
v 0.900000 0.100000 1.000000
v 1.000000 0.100000 1.000000
v 0.900000 1.000000 0.900000
v 0.900000 1.000000 1.000000
v 1.000000 1.000000 1.000000
v 1.000000 1.000000 0.900000
v 0.900000 0.100000 0.900000
v 1.000000 0.100000 0.900000
vt 0.0000 0.0000
vt 1.0000 0.0000
vt 1.0000 1.0000
vt 0.0000 1.0000
vt 0.0000 0.0000
vt 0.0000 1.0000
vt 1.0000 1.0000
vt 1.0000 0.0000
vt 0.0000 0.3000
vt 1.0000 0.0000
vt 1.0000 0.3000
vt 0.6649 0.0148
vt 0.6649 0.9811
vt 0.9547 0.9811
vt 0.9547 0.0148
vt 0.6649 0.0148
vt 0.9547 0.0148
vt 0.9547 0.9811
vt 0.6649 0.9811
vt 0.0000 0.3000
vt 1.0000 0.3000
vt 1.0000 0.0000
vt 0.0000 0.0000
vt 0.6649 0.0148
vt 0.9547 0.0148
vt 0.9547 0.9811
vt 0.6649 0.9811
vt 0.6649 0.0148
vt 0.6649 0.9811
vt 0.9547 0.9811
vt 0.9547 0.0148
vt 0.6649 0.0148
vt 0.9547 0.0148
vt 0.0000 0.3000
vt 0.0000 0.0000
vt 0.6649 0.9811
vt 0.9547 0.9811
vt 0.6649 0.0148
vt 0.9547 0.0148
vt 0.9547 0.9811
vt 0.6649 0.9811
vt 0.6649 0.0148
vt 0.9547 0.0148
vt 0.9547 0.9811
vt 0.6649 0.9811
vt 0.6649 0.0148
vt 0.6649 0.9811
vt 0.9547 0.9811
vt 0.9547 0.0148
vt 0.6649 0.0148
vt 0.6649 0.9811
vt 0.9547 0.9811
vt 0.9547 0.0148
vt 0.6649 0.0148
vt 0.9547 0.0148
vt 0.9547 0.9811
vt 0.6649 0.9811
vt 0.6649 0.0148
vt 0.9547 0.0148
vt 0.9547 0.9811
vt 0.6649 0.9811
vt 1.0000 0.3000
vt 0.6649 0.0148
vt 0.9547 0.0148
vt 0.6649 0.9811
vt 0.9547 0.9811
vn 0.0000 -1.0000 0.0000
vn 0.0000 1.0000 0.0000
vn -0.0000 -0.0000 -1.0000
vn 1.0000 -0.0000 -0.0000
vn -1.0000 0.0000 0.0000
vn 0.0000 0.0000 1.0000
usemtl None
s off
f 1/1/1 18/2/1 19/3/1 4/4/1
f 7/5/2 10/6/2 9/7/2 8/8/2
f 7/9/3 1/1/3 4/10/3 10/11/3
f 22/12/4 21/13/4 16/14/4 24/15/4
f 17/16/5 23/17/5 15/18/5 20/19/5
f 8/20/6 9/21/6 19/22/6 18/23/6
f 5/24/3 2/25/3 3/26/3 12/27/3
f 6/28/6 11/29/6 14/30/6 13/31/6
f 12/32/5 3/33/5 14/30/5 11/29/5
f 10/34/5 4/35/5 19/22/5 9/21/5
f 5/24/4 6/36/4 13/37/4 2/25/4
f 21/38/6 20/19/6 15/18/6 16/39/6
f 22/12/3 24/15/3 23/40/3 17/41/3
f 27/42/3 25/43/3 26/44/3 30/45/3
f 28/46/6 29/47/6 32/48/6 31/49/6
f 38/50/4 37/51/4 34/52/4 40/53/4
f 35/54/5 39/55/5 33/56/5 36/57/5
f 37/58/6 36/57/6 33/56/6 34/59/6
f 38/50/3 40/53/3 39/60/3 35/61/3
f 7/9/4 8/62/4 18/2/4 1/1/4
f 30/63/5 26/64/5 32/48/5 29/47/5
f 27/42/4 28/65/4 31/66/4 25/43/4
