# Blender v2.77 (sub 0) OBJ File: 'slope.blend'
# www.blender.org
mtllib slope.mtl
o Cube.001_Cube.000
v 0.000000 1.000000 1.000000
v 1.000000 1.000000 1.000000
v 0.000000 -0.000000 1.000000
v 1.000000 -0.000000 1.000000
v 1.000000 -0.000000 0.000000
v 0.000000 -0.000000 0.000000
v 0.000000 0.000000 0.000000
v 1.000000 0.000000 0.000000
vt 0.0000 0.0000
vt 1.0000 0.0000
vt 1.0000 1.0000
vt 0.0000 1.0000
vt 0.0000 0.0000
vt 1.0000 0.0000
vt 0.0000 1.0000
vt 0.0000 0.0000
vt 1.0000 0.0000
vt 1.0000 1.0000
vt 0.0000 1.0000
vt 0.0000 0.0000
vt 1.0000 1.0000
vt 0.0000 1.0000
vt 1.0000 0.0000
vt 1.0000 1.0000
vt 1.0000 0.0000
vt 0.0000 1.0000
vn -0.0000 -0.7071 -0.7071
vn -0.0000 0.7071 -0.7071
vn 0.0000 -1.0000 0.0000
vn 0.0000 -0.0000 1.0000
vn 1.0000 0.0000 -0.0000
vn -1.0000 0.0000 0.0000
usemtl None
s off
f 5/1/1 6/2/1 7/3/1 8/4/1
f 2/5/2 8/6/2 7/3/2 1/7/2
f 4/8/3 3/9/3 6/10/3 5/11/3
f 1/12/4 3/9/4 4/13/4 2/14/4
f 2/5/5 4/15/5 5/16/5 8/4/5
f 1/12/6 7/17/6 6/10/6 3/18/6
